<?xml version="1.0" encoding="UTF-8"?>
<svg version="1.1" xmlns="http://www.w3.org/2000/svg" width="360" height="360">
<path d="M0 0 C118.8 0 237.6 0 360 0 C360 118.8 360 237.6 360 360 C241.2 360 122.4 360 0 360 C0 241.2 0 122.4 0 0 Z " fill="#0F1010" transform="translate(0,0)"/>
<path d="M0 0 C27.72 0 55.44 0 84 0 C84 0.66 84 1.32 84 2 C84.66 2 85.32 2 86 2 C86 2.66 86 3.32 86 4 C86.639375 4.103125 87.27875 4.20625 87.9375 4.3125 C88.618125 4.539375 89.29875 4.76625 90 5 C90.33 5.99 90.66 6.98 91 8 C91.66 8 92.32 8 93 8 C95.42226862 11.74363992 95.3157691 15.48433939 95.33813477 19.79443359 C95.34967087 20.57541916 95.36120697 21.35640472 95.37309265 22.16105652 C95.40735453 24.74020401 95.42589045 27.31911261 95.44140625 29.8984375 C95.45176061 31.22215803 95.45176061 31.22215803 95.46232414 32.57262039 C95.49813593 37.24144924 95.52168901 41.91015756 95.53540039 46.57910156 C95.55196134 51.39711834 95.61041065 56.21367072 95.67854404 61.03119469 C95.72334684 64.74074698 95.73689595 68.44994842 95.74201775 72.15974808 C95.74990663 73.93559458 95.76953809 75.71142994 95.80124092 77.48701096 C96.0325267 91.35341953 96.0325267 91.35341953 93.46090698 95.45440674 C91.0559951 97.60110523 89.27867151 99 86 99 C86 99.66 86 100.32 86 101 C80.52380952 106 80.52380952 106 78 106 C77.01 107.98 77.01 107.98 76 110 C75.34 110 74.68 110 74 110 C73.731875 110.556875 73.46375 111.11375 73.1875 111.6875 C69.58181818 118.70909091 69.58181818 118.70909091 67 120 C65.86897474 122.34038186 65.86897474 122.34038186 64.875 125.0625 C64.52179688 125.98160156 64.16859375 126.90070313 63.8046875 127.84765625 C63.53914062 128.55792969 63.27359375 129.26820313 63 130 C62.34 130 61.68 130 61 130 C60.84144531 130.72703125 60.68289062 131.4540625 60.51953125 132.203125 C58.98876878 138.79978095 56.95599165 144.81723208 54.2421875 151.015625 C53.04250395 153.8978836 52.09887046 156.76586664 51.1875 159.75 C45.9349214 175.69532788 37.45840476 189.6894294 24 200 C23.34 200 22.68 200 22 200 C22 200.66 22 201.32 22 202 C5.28937586 215.11783995 -11.53875983 215.30668114 -31.9609375 215.23046875 C-34.08175631 215.22927449 -36.20257565 215.22882431 -38.32339478 215.2290802 C-42.74606689 215.22752389 -47.16865707 215.21929686 -51.59130859 215.20581055 C-57.25370145 215.18875945 -62.9160051 215.18499852 -68.57842064 215.18575573 C-72.94846443 215.1854837 -77.31848882 215.17999819 -81.68852615 215.17275429 C-83.77688068 215.16957901 -85.8652374 215.16760289 -87.95359421 215.16686058 C-90.86802667 215.16468844 -93.78236515 215.15592705 -96.69677734 215.14526367 C-97.55402405 215.14571686 -98.41127075 215.14617004 -99.29449463 215.14663696 C-103.61786686 215.12354954 -107.77756687 215.04359368 -112 214 C-114.1875 211.75 -114.1875 211.75 -116 209 C-116.52404922 208.28484222 -117.04809845 207.56968445 -117.58802795 206.83285522 C-119.41129045 203.1748234 -119.42813025 199.92045601 -119.40405273 195.92431641 C-119.41434761 194.72576775 -119.41434761 194.72576775 -119.42485046 193.50300598 C-119.44310931 190.86900925 -119.43928184 188.23560878 -119.43359375 185.6015625 C-119.43815651 183.76459561 -119.44346237 181.92763043 -119.44947815 180.09066772 C-119.45840784 176.24234072 -119.45598835 172.39422125 -119.44604492 168.54589844 C-119.43456471 163.62413714 -119.45475281 158.70309431 -119.48396206 153.78142738 C-119.50234654 149.98775714 -119.50202697 146.19425828 -119.49632454 142.40055466 C-119.49617155 140.58654143 -119.50219737 138.77251641 -119.51461601 136.95854568 C-119.52956421 134.4167357 -119.51882115 131.87624263 -119.50170898 129.33447266 C-119.51137695 128.59138351 -119.52104492 127.84829437 -119.53100586 127.08268738 C-119.45353568 121.56223311 -117.96284329 118.48359207 -115 114 C-114.01 114 -113.02 114 -112 114 C-111.67 113.01 -111.34 112.02 -111 111 C-106.50612844 108.33195568 -101.67710789 108.73161179 -96.61987305 108.77294922 C-95.68280014 108.77265717 -94.74572723 108.77236511 -93.78025818 108.77206421 C-90.69065003 108.77345476 -87.60128465 108.78900315 -84.51171875 108.8046875 C-82.36652254 108.8084186 -80.22132462 108.81126512 -78.0761261 108.81326294 C-72.43561074 108.82089171 -66.79519871 108.84053379 -61.15472412 108.8626709 C-55.39678342 108.88314556 -49.638826 108.89226813 -43.88085938 108.90234375 C-32.58719424 108.92378032 -21.29360572 108.95790723 -10 109 C-10.00888245 107.81284897 -10.01776489 106.62569794 -10.0269165 105.40257263 C-10.1080611 94.20582036 -10.16799376 83.00912788 -10.20724869 71.81214809 C-10.22810864 66.05587429 -10.2563977 60.29983818 -10.30175781 54.54370117 C-10.3452716 48.98698152 -10.36914909 43.43049026 -10.37950897 37.87361336 C-10.38689035 35.75534534 -10.40130448 33.63708958 -10.42292023 31.51891899 C-10.45202727 28.54806542 -10.45595288 25.57815134 -10.45410156 22.60717773 C-10.46848267 21.73467377 -10.48286377 20.8621698 -10.49768066 19.96322632 C-10.45059745 12.96425429 -8.52280195 8.89380223 -3.875 3.5625 C-2 2 -2 2 0 2 C0 1.34 0 0.68 0 0 Z " fill="#3AC0C5" transform="translate(138,22)"/>
<path d="M0 0 C0.94723434 -0.00569504 1.89446869 -0.01139008 2.8704071 -0.01725769 C5.98590809 -0.02832693 9.09928678 0.0036458 12.21459961 0.03735352 C14.38740289 0.04093247 16.56021087 0.04228765 18.73301697 0.04151917 C23.27999053 0.0462043 27.82625234 0.07099929 32.37304688 0.11132812 C38.19605913 0.16232771 44.01829083 0.1737697 49.84150028 0.17149258 C54.32571336 0.17230899 58.80975642 0.18877298 63.29391289 0.2104969 C65.44086865 0.22003023 67.58784363 0.22595288 69.73481941 0.22817802 C72.736306 0.23469592 75.73697169 0.26098432 78.73828125 0.29296875 C79.62208466 0.29160919 80.50588806 0.29024963 81.41647339 0.28884888 C86.46730784 0.36739962 89.8805537 1.01642433 94.30444336 3.72875977 C94.30444336 4.38875977 94.30444336 5.04875977 94.30444336 5.72875977 C94.90256836 5.93500977 95.50069336 6.14125977 96.11694336 6.35375977 C99.2361603 8.31441041 99.92266209 10.32865893 101.30444336 13.72875977 C101.59349967 16.49959845 101.73543175 19.04378849 101.72436523 21.81030273 C101.73283478 22.59812134 101.74130432 23.38593994 101.75003052 24.19763184 C101.7733327 26.7889035 101.77442426 29.37957896 101.77319336 31.97094727 C101.78029941 33.78166946 101.78799906 35.59238942 101.79626465 37.40310669 C101.80969415 41.19417584 101.81128529 44.9850368 101.80541992 48.77612305 C101.79952746 53.62053603 101.83010344 58.46394557 101.8705368 63.3081646 C101.89646036 67.04698006 101.89928697 70.78555546 101.89564514 74.52444839 C101.89733226 76.30973963 101.90693533 78.09504245 101.92478943 79.88024521 C102.07948785 97.26109296 102.07948785 97.26109296 96.30444336 103.72875977 C90.84205443 107.37035238 85.1857835 106.86797759 78.83251953 106.84228516 C77.41227982 106.8425042 77.41227982 106.8425042 75.96334839 106.84272766 C72.84134613 106.84203235 69.71940392 106.83425777 66.59741211 106.82641602 C64.42979464 106.82455048 62.26217675 106.82312722 60.09455872 106.8221283 C54.39489575 106.81831378 48.69525835 106.80849257 42.99560547 106.79742432 C37.17733099 106.7871873 31.35905238 106.78262576 25.54077148 106.77758789 C14.12865089 106.76686936 2.71654925 106.74980571 -8.69555664 106.72875977 C-8.68556389 108.48736328 -8.68556389 108.48736328 -8.67536926 110.28149414 C-8.61447964 121.34551359 -8.56954625 132.40949891 -8.54012012 143.47364807 C-8.52448315 149.16145832 -8.50328064 154.849133 -8.46923828 160.53686523 C-8.43657492 166.02874072 -8.41868882 171.52048602 -8.41092491 177.01245117 C-8.40539395 179.10475716 -8.39459334 181.19705626 -8.37836647 183.28930664 C-8.35649968 186.22631064 -8.35359361 189.16278084 -8.35498047 192.09985352 C-8.34419464 192.95941147 -8.33340881 193.81896942 -8.32229614 194.70457458 C-8.35496178 201.12319207 -9.45427436 206.33592107 -13.06506348 211.8019104 C-20.19444585 217.91735467 -30.03187141 216.46984257 -38.85180664 216.31469727 C-40.72365962 216.30349457 -42.5955303 216.29495946 -44.46740723 216.28897095 C-49.37346713 216.26615701 -54.2784465 216.20729871 -59.18408203 216.14074707 C-64.19817491 216.07916336 -69.21244387 216.05192169 -74.22680664 216.02172852 C-84.05019579 215.95754759 -93.87278606 215.85525906 -103.69555664 215.72875977 C-103.69555664 215.06875977 -103.69555664 214.40875977 -103.69555664 213.72875977 C-104.56180664 213.35750977 -104.56180664 213.35750977 -105.44555664 212.97875977 C-108.02495643 211.54575988 -109.75677256 209.944513 -111.69555664 207.72875977 C-111.69555664 207.06875977 -111.69555664 206.40875977 -111.69555664 205.72875977 C-112.35555664 205.72875977 -113.01555664 205.72875977 -113.69555664 205.72875977 C-114.92404632 202.04329072 -114.84310223 198.63859221 -114.84082031 194.80078125 C-114.84585823 193.59062347 -114.84585823 193.59062347 -114.85099792 192.35601807 C-114.86050305 189.68728093 -114.86245058 187.01860653 -114.86352539 184.34985352 C-114.86673743 182.4980517 -114.87010146 180.64625013 -114.87361145 178.79444885 C-114.87960102 174.91325288 -114.88145144 171.03207918 -114.88085938 167.15087891 C-114.88075757 162.16824559 -114.89442963 157.18575419 -114.91163158 152.20315456 C-114.92272608 148.37969806 -114.9247794 144.55627621 -114.92424965 140.73280525 C-114.92543286 138.89512707 -114.92987361 137.05744808 -114.93758202 135.21978569 C-114.94733393 132.65553572 -114.94452342 130.0915983 -114.93847656 127.52734375 C-114.94409607 126.76313614 -114.94971558 125.99892853 -114.95550537 125.21156311 C-114.92387472 119.95707785 -114.92387472 119.95707785 -112.69555664 117.72875977 C-110.4582669 117.24850385 -108.20442568 116.84430289 -105.94555664 116.47875977 C-98.91324498 115.23998245 -92.8854382 112.93558612 -86.42602539 109.93579102 C-83.69555664 108.72875977 -83.69555664 108.72875977 -81.69555664 108.72875977 C-81.69555664 108.06875977 -81.69555664 107.40875977 -81.69555664 106.72875977 C-75.07055664 103.72875977 -75.07055664 103.72875977 -71.69555664 103.72875977 C-71.61305664 102.94500977 -71.53055664 102.16125977 -71.44555664 101.35375977 C-71.19805664 100.48750977 -70.95055664 99.62125977 -70.69555664 98.72875977 C-69.38022254 98.02724824 -68.04438072 97.36350051 -66.69555664 96.72875977 C-65.67689435 95.07343354 -64.67744851 93.40615838 -63.69555664 91.72875977 C-60.28176354 88.72875977 -60.28176354 88.72875977 -57.69555664 88.72875977 C-57.32430664 87.89344727 -57.32430664 87.89344727 -56.94555664 87.04125977 C-55.69555664 84.72875977 -55.69555664 84.72875977 -53.75805664 82.47875977 C-51.71244492 79.75127748 -50.59891377 77.20676131 -49.48852539 73.99829102 C-48.57188858 71.37481326 -47.547017 68.80611055 -46.50805664 66.22875977 C-46.16387695 65.37282227 -45.81969727 64.51688477 -45.46508789 63.63500977 C-45.21114258 63.00594727 -44.95719727 62.37688477 -44.69555664 61.72875977 C-44.03555664 61.72875977 -43.37555664 61.72875977 -42.69555664 61.72875977 C-42.59243164 60.90375977 -42.48930664 60.07875977 -42.38305664 59.22875977 C-41.57909608 55.13586965 -40.23203506 51.60335752 -38.69555664 47.72875977 C-38.03555664 47.72875977 -37.37555664 47.72875977 -36.69555664 47.72875977 C-36.65817383 47.09969727 -36.62079102 46.47063477 -36.58227539 45.82250977 C-36.12878543 39.91824828 -35.0157875 35.1762583 -32.69555664 29.72875977 C-32.03555664 29.72875977 -31.37555664 29.72875977 -30.69555664 29.72875977 C-30.43387695 28.86379883 -30.17219727 27.99883789 -29.90258789 27.10766602 C-27.18897733 19.51131283 -22.87824693 11.98404651 -16.69555664 6.72875977 C-15.98546369 5.98903223 -15.98546369 5.98903223 -15.26102543 5.23436069 C-10.39619431 0.43842036 -6.67553722 -0.12762796 0 0 Z " fill="#0EAFB6" transform="translate(241.695556640625,130.271240234375)"/>
<path d="M0 0 C27.72 0 55.44 0 84 0 C84 0.66 84 1.32 84 2 C84.66 2 85.32 2 86 2 C86 2.66 86 3.32 86 4 C86.639375 4.103125 87.27875 4.20625 87.9375 4.3125 C88.618125 4.539375 89.29875 4.76625 90 5 C90.33 5.99 90.66 6.98 91 8 C91.66 8 92.32 8 93 8 C95.42226862 11.74363992 95.3157691 15.48433939 95.33813477 19.79443359 C95.34967087 20.57541916 95.36120697 21.35640472 95.37309265 22.16105652 C95.40735453 24.74020401 95.42589045 27.31911261 95.44140625 29.8984375 C95.45176061 31.22215803 95.45176061 31.22215803 95.46232414 32.57262039 C95.49813593 37.24144924 95.52168901 41.91015756 95.53540039 46.57910156 C95.55196134 51.39711834 95.61041065 56.21367072 95.67854404 61.03119469 C95.72334684 64.74074698 95.73689595 68.44994842 95.74201775 72.15974808 C95.74990663 73.93559458 95.76953809 75.71142994 95.80124092 77.48701096 C96.0325267 91.35341953 96.0325267 91.35341953 93.46090698 95.45440674 C91.0559951 97.60110523 89.27867151 99 86 99 C86 99.66 86 100.32 86 101 C80.52380952 106 80.52380952 106 78 106 C77.01 107.98 77.01 107.98 76 110 C75.34 110 74.68 110 74 110 C73.731875 110.556875 73.46375 111.11375 73.1875 111.6875 C69.58181818 118.70909091 69.58181818 118.70909091 67 120 C65.86897474 122.34038186 65.86897474 122.34038186 64.875 125.0625 C64.52179688 125.98160156 64.16859375 126.90070313 63.8046875 127.84765625 C63.53914062 128.55792969 63.27359375 129.26820313 63 130 C62.34 130 61.68 130 61 130 C60.84144531 130.72703125 60.68289062 131.4540625 60.51953125 132.203125 C58.98876878 138.79978095 56.95599165 144.81723208 54.2421875 151.015625 C53.04250395 153.8978836 52.09887046 156.76586664 51.1875 159.75 C45.9349214 175.69532788 37.45840476 189.6894294 24 200 C23.34 200 22.68 200 22 200 C22 200.66 22 201.32 22 202 C5.28937586 215.11783995 -11.53875983 215.30668114 -31.9609375 215.23046875 C-34.08175631 215.22927449 -36.20257565 215.22882431 -38.32339478 215.2290802 C-42.74606689 215.22752389 -47.16865707 215.21929686 -51.59130859 215.20581055 C-57.25370145 215.18875945 -62.9160051 215.18499852 -68.57842064 215.18575573 C-72.94846443 215.1854837 -77.31848882 215.17999819 -81.68852615 215.17275429 C-83.77688068 215.16957901 -85.8652374 215.16760289 -87.95359421 215.16686058 C-90.86802667 215.16468844 -93.78236515 215.15592705 -96.69677734 215.14526367 C-97.55402405 215.14571686 -98.41127075 215.14617004 -99.29449463 215.14663696 C-103.61786686 215.12354954 -107.77756687 215.04359368 -112 214 C-114.1875 211.75 -114.1875 211.75 -116 209 C-116.52535843 208.28713333 -117.05071686 207.57426666 -117.59199524 206.83979797 C-119.42628426 203.14022934 -119.39798036 199.84816781 -119.34057617 195.81323242 C-119.34101425 195.00295593 -119.34145233 194.19267944 -119.34190369 193.35784912 C-119.33982024 190.69014052 -119.31651045 188.02306703 -119.29296875 185.35546875 C-119.28737121 183.50173791 -119.28310186 181.64800262 -119.28010559 179.79426575 C-119.26866927 174.9230619 -119.23921248 170.05212779 -119.20599365 165.18103027 C-119.17526665 160.20731251 -119.16159463 155.23355102 -119.14648438 150.25976562 C-119.11434165 140.50639212 -119.06315992 130.75321852 -119 121 C-118.67 121 -118.34 121 -118 121 C-118 148.06 -118 175.12 -118 203 C-98.78522944 200.79764926 -98.78522944 200.79764926 -79.9140625 197.55078125 C-77 197 -77 197 -74 197 C-74 196.34 -74 195.68 -74 195 C-72.90300781 194.60167969 -71.80601563 194.20335937 -70.67578125 193.79296875 C-69.22125618 193.25807888 -67.76683452 192.72290775 -66.3125 192.1875 C-65.59126953 191.92646484 -64.87003906 191.66542969 -64.12695312 191.39648438 C-60.12747386 189.91722492 -56.65338345 188.22379862 -53 186 C-50.1875 185.8125 -50.1875 185.8125 -48 186 C-47.91492188 185.37222656 -47.82984375 184.74445313 -47.7421875 184.09765625 C-47 182 -47 182 -45.2578125 181.05859375 C-44.55398437 180.85363281 -43.85015625 180.64867187 -43.125 180.4375 C-39.89085789 179.47680465 -38.33450994 178.40788025 -36 176 C-35.34 176 -34.68 176 -34 176 C-34 175.34 -34 174.68 -34 174 C-33.34 174 -32.68 174 -32 174 C-31.67 173.01 -31.34 172.02 -31 171 C-29.35 170.67 -27.7 170.34 -26 170 C-26 169.34 -26 168.68 -26 168 C-24.34997172 166.64613064 -22.6825613 165.31321858 -21 164 C-20.67 163.34 -20.34 162.68 -20 162 C-19.34 162 -18.68 162 -18 162 C-17.896875 161.4225 -17.79375 160.845 -17.6875 160.25 C-16.88350079 157.61872985 -15.86932485 156.01311907 -14 154 C-13.01 154 -12.02 154 -11 154 C-9.58622659 151.36095629 -8.62759865 148.92879371 -8 146 C-7.34 146 -6.68 146 -6 146 C-5.71125 145.236875 -5.4225 144.47375 -5.125 143.6875 C-4 141 -4 141 -2 138 C-1.34 138 -0.68 138 0 138 C0.268125 136.88625 0.53625 135.7725 0.8125 134.625 C2 131 2 131 5 129 C5.93887973 126.95526596 5.93887973 126.95526596 6.5625 124.625 C7.46835181 121.5645515 8.49922578 118.8211979 10 116 C10.66 116 11.32 116 12 116 C12.23976562 115.18144531 12.47953125 114.36289063 12.7265625 113.51953125 C14.24179332 109.33173074 16.24180517 105.58665064 18.375 101.6875 C21.50595292 95.87938259 24.43737898 90.08622492 27 84 C27.33 83.34 27.66 82.68 28 82 C28.66 82 29.32 82 30 82 C30.061875 81.34 30.12375 80.68 30.1875 80 C31.33194773 75.77434686 33.61165279 72.63417718 36 69 C36.59941406 68.02289063 37.19882813 67.04578125 37.81640625 66.0390625 C38.43386719 65.03617187 39.05132812 64.03328125 39.6875 63 C40.26886719 62.05125 40.85023438 61.1025 41.44921875 60.125 C41.96097656 59.42375 42.47273437 58.7225 43 58 C43.66 58 44.32 58 45 58 C45.28875 57.236875 45.5775 56.47375 45.875 55.6875 C47 53 47 53 49 50 C49.66 50 50.32 50 51 50 C51.37125 49.13375 51.37125 49.13375 51.75 48.25 C53.17619535 45.68284836 54.89732966 44.03895306 57 42 C57.53625 41.2575 58.0725 40.515 58.625 39.75 C59.07875 39.1725 59.5325 38.595 60 38 C60.66 38 61.32 38 62 38 C62 37.34 62 36.68 62 36 C63.2065625 35.5978125 63.2065625 35.5978125 64.4375 35.1875 C65.283125 34.795625 66.12875 34.40375 67 34 C67.33 33.01 67.66 32.02 68 31 C69.63671875 29.53515625 69.63671875 29.53515625 71.6875 28.0625 C72.40550781 27.54558594 73.12351563 27.02867188 73.86328125 26.49609375 C74.56839844 26.00238281 75.27351562 25.50867188 76 25 C76.88751953 24.36771484 76.88751953 24.36771484 77.79296875 23.72265625 C81.71708185 21 81.71708185 21 84 21 C84 20.34 84 19.68 84 19 C90.75 15 90.75 15 93 15 C92.67 14.01 92.34 13.02 92 12 C91.01 11.505 91.01 11.505 90 11 C90 10.01 90 9.02 90 8 C88.35 8 86.7 8 85 8 C84.87625 7.360625 84.7525 6.72125 84.625 6.0625 C84.41875 5.381875 84.2125 4.70125 84 4 C80.65808358 2.32904179 76.90084222 2.85879554 73.2265625 2.8671875 C72.32714432 2.86568695 71.42772614 2.8641864 70.50105286 2.86264038 C67.54232454 2.86026825 64.58371637 2.86657424 61.625 2.875 C60.62123322 2.87721558 59.61746643 2.87943115 58.58328247 2.88171387 C51.38867158 2.90034811 44.19441608 2.94515803 37 3 C36.06077698 3.0062439 35.12155396 3.01248779 34.15386963 3.0189209 C29.02602848 3.05472013 23.89947162 3.1129251 18.7723999 3.20953369 C17.22208473 3.23640231 15.67164237 3.25676036 14.12115479 3.27044678 C11.97444046 3.29147301 9.8297213 3.33751665 7.68359375 3.390625 C5.88233032 3.4220459 5.88233032 3.4220459 4.04467773 3.45410156 C0.41231805 4.105369 -0.58374402 5.32141908 -3 8 C-3.99 8 -4.98 8 -6 8 C-4.95125002 5.37812506 -4.35068687 4.20628639 -1.875 2.75 C-1.25625 2.5025 -0.6375 2.255 0 2 C0 1.34 0 0.68 0 0 Z " fill="#20BAC0" transform="translate(138,22)"/>
<path d="M0 0 C4.02108117 3.81487188 5.8987823 5.75074124 6.15390015 11.41996765 C6.17204905 12.86024494 6.18461734 14.30059882 6.19287109 15.7409668 C6.20513733 16.92203758 6.20513733 16.92203758 6.21765137 18.12696838 C6.24247478 20.7343775 6.25901543 23.3417322 6.2734375 25.94921875 C6.27876118 26.84115244 6.28408485 27.73308613 6.28956985 28.65204811 C6.31629089 33.3750383 6.33566729 38.09800218 6.35009766 42.82104492 C6.36342565 46.7233022 6.39125847 50.62503517 6.43212891 54.52709961 C6.48153564 59.24443314 6.50622876 63.96129185 6.51332474 68.67887306 C6.52002349 70.47256465 6.53520964 72.26624621 6.55921555 74.05978966 C6.77994337 91.55191346 6.77994337 91.55191346 1 98 C-4.46238893 101.64159262 -10.11865986 101.13921782 -16.47192383 101.11352539 C-17.89216354 101.11374443 -17.89216354 101.11374443 -19.34109497 101.1139679 C-22.46309723 101.11327258 -25.58503944 101.10549801 -28.70703125 101.09765625 C-30.87464872 101.09579072 -33.0422666 101.09436745 -35.20988464 101.09336853 C-40.90954761 101.08955402 -46.60918501 101.07973281 -52.30883789 101.06866455 C-58.12711237 101.05842753 -63.94539098 101.053866 -69.76367188 101.04882812 C-81.17579247 101.0381096 -92.58789411 101.02104595 -104 101 C-103.99333817 102.17240234 -103.98667633 103.34480469 -103.97981262 104.55273438 C-103.918923 115.61675382 -103.87398961 126.68073914 -103.84456348 137.74488831 C-103.82892651 143.43269856 -103.807724 149.12037323 -103.77368164 154.80810547 C-103.74101828 160.29998096 -103.72313218 165.79172626 -103.71536827 171.28369141 C-103.70983731 173.3759974 -103.6990367 175.4682965 -103.68280983 177.56054688 C-103.66094303 180.49755088 -103.65803697 183.43402107 -103.65942383 186.37109375 C-103.648638 187.2306517 -103.63785217 188.09020966 -103.6267395 188.97581482 C-103.65552214 194.63144551 -104.61610707 198.8469417 -107 204 C-109.1875 205.5 -109.1875 205.5 -111 206 C-110.40138258 203.64828869 -109.73075648 201.3140622 -109 199 C-108.34 198.67 -107.68 198.34 -107 198 C-106.67 165.66 -106.34 133.32 -106 100 C-105.34 100 -104.68 100 -104 100 C-104 99.34 -104 98.68 -104 98 C-102.81871521 97.99191315 -101.63743042 97.98382629 -100.42034912 97.97549438 C-89.29609273 97.89806075 -78.17195906 97.81032842 -67.04786301 97.71247292 C-61.32864566 97.66249468 -55.60944692 97.61616467 -49.89013672 97.578125 C-44.37226184 97.54129165 -38.85454208 97.49493682 -33.33679962 97.44193649 C-31.23007168 97.42338221 -29.12331048 97.40827809 -27.0165329 97.39665604 C-24.06912805 97.37981145 -21.12207926 97.35078043 -18.17480469 97.31884766 C-17.30086563 97.31668747 -16.42692657 97.31452728 -15.52650452 97.31230164 C-14.72166122 97.30113815 -13.91681793 97.28997467 -13.08758545 97.2784729 C-12.39070995 97.27294214 -11.69383446 97.26741138 -10.97584152 97.26171303 C-8.66189551 96.95521587 -7.06853816 96.05202325 -5 95 C-4.01 95 -3.02 95 -2 95 C-1.505 93.515 -1.505 93.515 -1 92 C0.65 91.67 2.3 91.34 4 91 C4.02320886 81.34211342 4.04095859 71.68423651 4.05181217 62.02632809 C4.05702233 57.54138641 4.06408598 53.05646387 4.07543945 48.5715332 C4.0863348 44.24028397 4.0922909 39.9090531 4.09487724 35.57779121 C4.09671953 33.92845941 4.100317 32.27912856 4.10573006 30.62980461 C4.11302878 28.31299573 4.11398723 25.99626196 4.11352539 23.67944336 C4.115746 22.3626207 4.11796661 21.04579803 4.12025452 19.68907166 C3.94281639 14.24576695 3.25521983 9.19953429 1.4375 4.0625 C1.16808594 3.29035156 0.89867187 2.51820313 0.62109375 1.72265625 C0.41613281 1.15417969 0.21117187 0.58570313 0 0 Z " fill="#1BAAB0" transform="translate(337,136)"/>
<path d="M0 0 C27.72 0 55.44 0 84 0 C84 0.66 84 1.32 84 2 C84.66 2 85.32 2 86 2 C86 2.66 86 3.32 86 4 C86.639375 4.103125 87.27875 4.20625 87.9375 4.3125 C88.618125 4.539375 89.29875 4.76625 90 5 C90.495 6.485 90.495 6.485 91 8 C91.66 8 92.32 8 93 8 C95.46715791 11.77126965 95.26909153 15.54540805 95.22705078 19.88964844 C95.22734283 20.68027176 95.22763489 21.47089508 95.22793579 22.28547668 C95.22654467 24.8935552 95.21099379 27.50134651 95.1953125 30.109375 C95.19158159 31.91969649 95.18873499 33.73002 95.18673706 35.54034424 C95.17910672 40.30134675 95.15946334 45.06222692 95.1373291 49.82318115 C95.1168578 54.68288518 95.10773259 59.54260901 95.09765625 64.40234375 C95.07621691 73.93494953 95.04208815 83.46746459 95 93 C94.01 93.495 94.01 93.495 93 94 C92.67 66.94 92.34 39.88 92 12 C91.01 11.505 91.01 11.505 90 11 C90 10.01 90 9.02 90 8 C88.35 8 86.7 8 85 8 C84.87625 7.360625 84.7525 6.72125 84.625 6.0625 C84.315625 5.0415625 84.315625 5.0415625 84 4 C80.65808358 2.32904179 76.90084222 2.85879554 73.2265625 2.8671875 C72.32714432 2.86568695 71.42772614 2.8641864 70.50105286 2.86264038 C67.54232454 2.86026825 64.58371637 2.86657424 61.625 2.875 C60.62123322 2.87721558 59.61746643 2.87943115 58.58328247 2.88171387 C51.38867158 2.90034811 44.19441608 2.94515803 37 3 C36.06077698 3.0062439 35.12155396 3.01248779 34.15386963 3.0189209 C29.02602848 3.05472013 23.89947162 3.1129251 18.7723999 3.20953369 C17.22208473 3.23640231 15.67164237 3.25676036 14.12115479 3.27044678 C11.97444046 3.29147301 9.8297213 3.33751665 7.68359375 3.390625 C5.88233032 3.4220459 5.88233032 3.4220459 4.04467773 3.45410156 C0.41231805 4.105369 -0.58374402 5.32141908 -3 8 C-3.99 8 -4.98 8 -6 8 C-4.95125002 5.37812506 -4.35068687 4.20628639 -1.875 2.75 C-1.25625 2.5025 -0.6375 2.255 0 2 C0 1.34 0 0.68 0 0 Z " fill="#1F9699" transform="translate(138,22)"/>
<path d="M0 0 C0.94723434 -0.00569504 1.89446869 -0.01139008 2.8704071 -0.01725769 C5.98590809 -0.02832693 9.09928678 0.0036458 12.21459961 0.03735352 C14.38740289 0.04093247 16.56021087 0.04228765 18.73301697 0.04151917 C23.27999053 0.0462043 27.82625234 0.07099929 32.37304688 0.11132812 C38.19605913 0.16232771 44.01829083 0.1737697 49.84150028 0.17149258 C54.32571336 0.17230899 58.80975642 0.18877298 63.29391289 0.2104969 C65.44086865 0.22003023 67.58784363 0.22595288 69.73481941 0.22817802 C72.736306 0.23469592 75.73697169 0.26098432 78.73828125 0.29296875 C80.06398636 0.29092941 80.06398636 0.29092941 81.41647339 0.28884888 C86.46730784 0.36739962 89.8805537 1.01642433 94.30444336 3.72875977 C93.64444336 4.05875977 92.98444336 4.38875977 92.30444336 4.72875977 C91.31444336 4.39875977 90.32444336 4.06875977 89.30444336 3.72875977 C86.36387842 3.62683758 83.44692365 3.58192997 80.50610352 3.58349609 C79.60661484 3.58013748 78.70712616 3.57677887 77.78038025 3.57331848 C74.80140814 3.5638053 71.82249222 3.56186516 68.84350586 3.56079102 C66.77468848 3.55757861 64.70587134 3.55421455 62.63705444 3.55070496 C58.2976631 3.54471271 53.95829168 3.54286515 49.61889648 3.54345703 C44.05812719 3.54355864 38.49748562 3.52990808 32.9367466 3.51268482 C28.66280531 3.50156671 24.38889491 3.49953777 20.11494064 3.50006676 C18.06482885 3.49888629 16.01471626 3.49446081 13.96461868 3.48673439 C11.09684555 3.47693874 8.22934985 3.47981097 5.36157227 3.48583984 C4.5146431 3.48022034 3.66771393 3.47460083 2.79512024 3.46881104 C-7.04387799 3.5213801 -11.8881194 7.91073554 -18.69555664 14.72875977 C-23.42403245 19.7749414 -23.42403245 19.7749414 -26.19165039 25.92797852 C-26.35793945 26.52223633 -26.52422852 27.11649414 -26.69555664 27.72875977 C-27.68555664 28.05875977 -28.67555664 28.38875977 -29.69555664 28.72875977 C-29.69555664 29.71875977 -29.69555664 30.70875977 -29.69555664 31.72875977 C-30.35555664 31.72875977 -31.01555664 31.72875977 -31.69555664 31.72875977 C-31.63368164 32.59500977 -31.57180664 33.46125977 -31.50805664 34.35375977 C-31.72011166 38.17075009 -32.81599971 40.43953513 -34.69555664 43.72875977 C-35.02555664 43.72875977 -35.35555664 43.72875977 -35.69555664 43.72875977 C-35.28401927 38.75782152 -34.89954832 34.28367591 -32.69555664 29.72875977 C-32.03555664 29.72875977 -31.37555664 29.72875977 -30.69555664 29.72875977 C-30.43387695 28.86379883 -30.17219727 27.99883789 -29.90258789 27.10766602 C-27.18897733 19.51131283 -22.87824693 11.98404651 -16.69555664 6.72875977 C-16.22216134 6.23560807 -15.74876604 5.74245638 -15.26102543 5.23436069 C-10.39619431 0.43842036 -6.67553722 -0.12762796 0 0 Z " fill="#1C9DA3" transform="translate(241.695556640625,130.271240234375)"/>
<path d="M0 0 C4.02108117 3.81487188 5.8987823 5.75074124 6.15390015 11.41996765 C6.17204905 12.86024494 6.18461734 14.30059882 6.19287109 15.7409668 C6.20513733 16.92203758 6.20513733 16.92203758 6.21765137 18.12696838 C6.24247478 20.7343775 6.25901543 23.3417322 6.2734375 25.94921875 C6.27876118 26.84115244 6.28408485 27.73308613 6.28956985 28.65204811 C6.31629089 33.3750383 6.33566729 38.09800218 6.35009766 42.82104492 C6.36342565 46.7233022 6.39125847 50.62503517 6.43212891 54.52709961 C6.48153564 59.24443314 6.50622876 63.96129185 6.51332474 68.67887306 C6.52002349 70.47256465 6.53520964 72.26624621 6.55921555 74.05978966 C6.77994337 91.55191346 6.77994337 91.55191346 1 98 C-4.43932597 101.62621731 -10.05393531 101.13938028 -16.38012695 101.11352539 C-17.31719986 101.11367142 -18.25427277 101.11381744 -19.21974182 101.1139679 C-22.30927872 101.11327264 -25.39875492 101.10549832 -28.48828125 101.09765625 C-30.63347847 101.0957907 -32.77867611 101.09436744 -34.9238739 101.09336853 C-40.56435324 101.08955417 -46.20480674 101.07973309 -51.84527588 101.06866455 C-57.60322724 101.0584272 -63.36118278 101.05386593 -69.11914062 101.04882812 C-80.41277175 101.03810987 -91.70638373 101.02104641 -103 101 C-103 100.34 -103 99.68 -103 99 C-101.17835831 98.99786247 -101.17835831 98.99786247 -99.31991577 98.99568176 C-87.87244032 98.9790089 -76.42532022 98.93622613 -64.97803307 98.86790943 C-59.09288822 98.83362561 -53.20800335 98.80852722 -47.32275391 98.80444336 C-41.64261276 98.80016351 -35.96305825 98.7717259 -30.28310013 98.72656822 C-28.11662844 98.71358335 -25.95008659 98.70928902 -23.78358078 98.71384621 C-20.74749234 98.71874496 -17.71312316 98.69269065 -14.67724609 98.65942383 C-13.33504501 98.67236229 -13.33504501 98.67236229 -11.96572876 98.68556213 C-7.6751526 98.60680455 -4.86155079 98.33153419 -1.45767212 95.58378601 C0.99105936 93.2615518 0.99105936 93.2615518 2 91 C2.66 91 3.32 91 4 91 C4.02320886 81.34211342 4.04095859 71.68423651 4.05181217 62.02632809 C4.05702233 57.54138641 4.06408598 53.05646387 4.07543945 48.5715332 C4.0863348 44.24028397 4.0922909 39.9090531 4.09487724 35.57779121 C4.09671953 33.92845941 4.100317 32.27912856 4.10573006 30.62980461 C4.11302878 28.31299573 4.11398723 25.99626196 4.11352539 23.67944336 C4.115746 22.3626207 4.11796661 21.04579803 4.12025452 19.68907166 C3.94281639 14.24576695 3.25521983 9.19953429 1.4375 4.0625 C1.16808594 3.29035156 0.89867187 2.51820313 0.62109375 1.72265625 C0.41613281 1.15417969 0.21117187 0.58570313 0 0 Z " fill="#187F84" transform="translate(337,136)"/>
<path d="M0 0 C0 3 0 3 -0.98259544 4.92965317 C-2.09863735 7.20072008 -2.25875058 8.61424087 -2.2784729 11.12554932 C-2.28962442 11.9371262 -2.30077595 12.74870308 -2.3122654 13.5848732 C-2.31443754 14.46984356 -2.31660969 15.35481392 -2.31884766 16.26660156 C-2.32900091 17.21865353 -2.33915417 18.17070549 -2.3496151 19.15160751 C-2.38023411 22.23127619 -2.39740278 25.31085247 -2.4140625 28.390625 C-2.43099744 30.2928141 -2.44881412 32.19499555 -2.4675293 34.09716797 C-2.53071104 41.14802428 -2.57681826 48.19902523 -2.625 55.25 C-2.74875 71.0075 -2.8725 86.765 -3 103 C-34.68 103 -66.36 103 -99 103 C-99 102.67 -99 102.34 -99 102 C-67.98 102 -36.96 102 -5 102 C-5.01160156 95.11640625 -5.02320312 88.2328125 -5.03515625 81.140625 C-5.04026482 76.78385323 -5.04507873 72.42708514 -5.04882812 68.0703125 C-5.05480955 61.15266148 -5.06189125 54.23502369 -5.07543945 47.31738281 C-5.08629217 41.74124761 -5.09228192 36.16512658 -5.09487724 30.58898163 C-5.09672718 28.45989509 -5.10033954 26.33080934 -5.10573006 24.20172882 C-5.11297207 21.22333592 -5.1139896 18.24500183 -5.11352539 15.26660156 C-5.11712067 14.38331177 -5.12071594 13.50002197 -5.12442017 12.58996582 C-5.1230455 11.77670837 -5.12167084 10.96345093 -5.12025452 10.12554932 C-5.12117631 9.42129948 -5.1220981 8.71704964 -5.12304783 7.99145889 C-4.99096867 5.85383305 -4.69245333 4.02844749 -4 2 C-1.9375 0.75 -1.9375 0.75 0 0 Z " fill="#164748" transform="translate(131,28)"/>
<path d="M0 0 C0.79200844 2.7882812 1.11639168 5.23075057 1.08229065 8.12554932 C1.07525116 8.93880676 1.06821167 9.75206421 1.06095886 10.58996582 C1.04801285 11.47325562 1.03506683 12.35654541 1.02172852 13.26660156 C1.01212097 14.20352844 1.00251343 15.14045532 0.99261475 16.10577393 C0.95964953 19.20080132 0.91930761 22.29568648 0.87890625 25.390625 C0.85460272 27.5372467 0.83075928 29.68387365 0.80735779 31.83050537 C0.74454007 37.47926826 0.67546677 43.12793807 0.60510254 48.77661133 C0.53439828 54.54113528 0.46959382 60.30572521 0.40429688 66.0703125 C0.27531431 77.38028083 0.13972483 88.69015963 0 100 C-1.14734619 100.00808685 -2.29469238 100.01617371 -3.47680664 100.02450562 C-14.30549479 100.10209234 -25.13405923 100.18986317 -35.96258545 100.28752708 C-41.52923098 100.33740819 -47.09585829 100.38373895 -52.66259766 100.421875 C-58.03784661 100.45883119 -63.41294 100.50521915 -68.78805542 100.55806351 C-70.83565534 100.57655259 -72.88328854 100.59168066 -74.93093872 100.60334396 C-77.80568265 100.62030045 -80.68007454 100.64935794 -83.5546875 100.68115234 C-84.39554398 100.68331253 -85.23640045 100.68547272 -86.10273743 100.68769836 C-91.36295918 100.76170137 -95.99328408 101.31641168 -101 103 C-101.33 103.99 -101.66 104.98 -102 106 C-102.9590625 106.2165625 -102.9590625 106.2165625 -103.9375 106.4375 C-106.20311706 106.80104993 -106.20311706 106.80104993 -107.25 109.0625 C-107.4975 109.701875 -107.745 110.34125 -108 111 C-108 107.89448334 -107.4606285 106.64738916 -106 104 C-105.01 104 -104.02 104 -103 104 C-102.67 103.01 -102.34 102.02 -102 101 C-97.50612844 98.33195568 -92.67710789 98.73161179 -87.61987305 98.77294922 C-86.68280014 98.77265717 -85.74572723 98.77236511 -84.78025818 98.77206421 C-81.69065003 98.77345476 -78.60128465 98.78900315 -75.51171875 98.8046875 C-73.36652254 98.8084186 -71.22132462 98.81126512 -69.0761261 98.81326294 C-63.43561074 98.82089171 -57.79519871 98.84053379 -52.15472412 98.8626709 C-46.39678342 98.88314556 -40.638826 98.89226813 -34.88085938 98.90234375 C-23.58719424 98.92378032 -12.29360572 98.95790723 -1 99 C-1.00222061 97.80396652 -1.00444122 96.60793304 -1.00672913 95.37565613 C-1.02697753 84.11874068 -1.04198036 72.86182892 -1.05181217 61.60489941 C-1.05703666 55.81723969 -1.06412649 50.02959464 -1.07543945 44.24194336 C-1.08628368 38.6593289 -1.09228011 33.07672857 -1.09487724 27.49410439 C-1.09672871 25.36140025 -1.10034402 23.2286969 -1.10573006 21.09599876 C-1.11296081 18.11500739 -1.11399007 15.13407486 -1.11352539 12.15307617 C-1.11712067 11.2661911 -1.12071594 10.37930603 -1.12442017 9.46554565 C-1.1230455 8.65366287 -1.12167084 7.84178009 -1.12025452 7.0052948 C-1.12117631 6.30012317 -1.1220981 5.59495153 -1.12304783 4.86841106 C-1 3 -1 3 0 0 Z " fill="#319598" transform="translate(129,32)"/>
<path d="M0 0 C-0.33 0.99 -0.66 1.98 -1 3 C-4.03173281 4.19493974 -7.02459427 4.10493955 -10.25 4.0625 C-11.14203125 4.05347656 -12.0340625 4.04445312 -12.953125 4.03515625 C-13.62859375 4.02355469 -14.3040625 4.01195312 -15 4 C-14.93863714 14.40582423 -14.86142211 24.8114008 -14.76428509 35.21695614 C-14.71966574 40.04932405 -14.68039121 44.88160929 -14.65356445 49.71411133 C-14.62744709 54.38270107 -14.58698557 59.05097125 -14.53681374 63.71936226 C-14.52020187 65.49538747 -14.50865237 67.27146789 -14.50238609 69.04755974 C-14.52607595 81.81836557 -14.52607595 81.81836557 -11 94 C-11.99 93.34 -12.98 92.68 -14 92 C-14 91.34 -14 90.68 -14 90 C-14.66 90 -15.32 90 -16 90 C-17.22848968 86.31453095 -17.14754559 82.90983245 -17.14526367 79.07202148 C-17.15030159 77.86186371 -17.15030159 77.86186371 -17.15544128 76.6272583 C-17.16494641 73.95852117 -17.16689394 71.28984676 -17.16796875 68.62109375 C-17.17118079 66.76929193 -17.17454482 64.91749037 -17.17805481 63.06568909 C-17.18404438 59.18449311 -17.1858948 55.30331941 -17.18530273 51.42211914 C-17.18520093 46.43948582 -17.19887299 41.45699442 -17.21607494 36.4743948 C-17.22716944 32.6509383 -17.22922276 28.82751644 -17.22869301 25.00404549 C-17.22987622 23.16636731 -17.23431697 21.32868832 -17.24202538 19.49102592 C-17.25177729 16.92677596 -17.24896678 14.36283854 -17.24291992 11.79858398 C-17.24853943 11.03437637 -17.25415894 10.27016876 -17.25994873 9.48280334 C-17.22831808 4.22831808 -17.22831808 4.22831808 -15 2 C-12.5390625 1.3671875 -12.5390625 1.3671875 -9.625 0.875 C-8.19027344 0.62363281 -8.19027344 0.62363281 -6.7265625 0.3671875 C-4 0 -4 0 0 0 Z " fill="#166D70" transform="translate(144,246)"/>
<path d="M0 0 C1.98 0 3.96 0 6 0 C5.01 0.66 4.02 1.32 3 2 C2.505 2.515625 2.01 3.03125 1.5 3.5625 C0 5 0 5 -3 6 C-5.99836441 10.61400012 -6.44283229 14.75374905 -6.43237305 20.11669922 C-6.4425647 20.90761459 -6.45275635 21.69852997 -6.46325684 22.51341248 C-6.49329288 25.11057709 -6.50263824 27.7073723 -6.51171875 30.3046875 C-6.52857243 32.11216448 -6.5467236 33.91962978 -6.56611633 35.7270813 C-6.61354772 40.47152052 -6.64340143 45.2159124 -6.66955566 49.96051025 C-6.69939583 54.8071019 -6.74591429 59.65353059 -6.79101562 64.5 C-6.87697066 73.99991463 -6.94435062 83.49986288 -7 93 C-9.48839325 90.51160675 -9.23503088 89.06910338 -9.24884033 85.67425537 C-9.24164978 84.93338684 -9.23445923 84.19251831 -9.22705078 83.42919922 C-9.22748886 82.25833267 -9.22748886 82.25833267 -9.22793579 81.06381226 C-9.22653968 78.47732522 -9.21096542 75.89112436 -9.1953125 73.3046875 C-9.19158337 71.51392779 -9.18873592 69.72316604 -9.18673706 67.93240356 C-9.17909275 63.21411528 -9.15943745 58.49594969 -9.1373291 53.77770996 C-9.11688782 48.96510478 -9.10773903 44.15247981 -9.09765625 39.33984375 C-9.07619228 29.89317519 -9.04204675 20.44659779 -9 11 C-8.34 11 -7.68 11 -7 11 C-7.12375 10.2575 -7.2475 9.515 -7.375 8.75 C-7.25125 7.8425 -7.1275 6.935 -7 6 C-4.0625 3.8125 -4.0625 3.8125 -1 2 C-0.67 1.34 -0.34 0.68 0 0 Z " fill="#0D4143" transform="translate(26,131)"/>
<path d="M0 0 C0.5882254 0.21275574 1.17645081 0.42551147 1.78250122 0.64471436 C10.73798674 3.51054516 19.46020939 3.40183731 28.7421875 3.328125 C30.44084505 3.3250606 32.13950513 3.32318966 33.83816528 3.32244873 C37.37658493 3.31787415 40.91477336 3.30355322 44.453125 3.28125 C48.98232218 3.25283968 53.51133913 3.24202194 58.04061699 3.2375679 C62.37866348 3.23241107 66.71666506 3.21788118 71.0546875 3.203125 C71.87730953 3.20124428 72.69993156 3.19936356 73.54748154 3.19742584 C75.87790755 3.190536 78.20819337 3.17689407 80.53857422 3.16113281 C81.56569771 3.15945602 81.56569771 3.15945602 82.61357117 3.15774536 C86.19698106 3.12571709 89.51352744 2.83992603 93 2 C91.51031494 3.97161865 91.51031494 3.97161865 89 6 C86.145965 6.37407324 83.68433237 6.50724398 80.83496094 6.45410156 C80.0150769 6.45468567 79.19519287 6.45526978 78.35046387 6.45587158 C75.64466789 6.4530883 72.93997815 6.42198549 70.234375 6.390625 C68.3567973 6.38316346 66.47921181 6.37747012 64.60162354 6.37347412 C59.66290742 6.35821091 54.7246628 6.31892313 49.78613281 6.2746582 C44.74550759 6.23372035 39.70480609 6.21546628 34.6640625 6.1953125 C24.77583465 6.15242959 14.88795655 6.08416988 5 6 C5 5.34 5 4.68 5 4 C4.360625 3.71125 3.72125 3.4225 3.0625 3.125 C1 2 1 2 0 0 Z " fill="#1B8587" transform="translate(133,340)"/>
<path d="M0 0 C0.495 0.99 0.495 0.99 1 2 C-3.1688071 13.8968316 -12.06244008 24.42121484 -22 32 C-22.66 32 -23.32 32 -24 32 C-24 32.66 -24 33.32 -24 34 C-31.38163761 40.28224477 -38.3737132 43.31728462 -48 44 C-45.55940376 39.89536087 -43.40378401 38.59426293 -38.9375 37.375 C-38.08027344 37.17648438 -37.22304687 36.97796875 -36.33984375 36.7734375 C-33.7780437 35.92663214 -32.82579371 34.91498478 -31 33 C-28.3125 32.8125 -28.3125 32.8125 -26 33 C-26 32.34 -26 31.68 -26 31 C-25.34 31 -24.68 31 -24 31 C-24 29.35 -24 27.7 -24 26 C-22.02 26 -20.04 26 -18 26 C-17.67 25.01 -17.34 24.02 -17 23 C-16.34 23 -15.68 23 -15 23 C-14.67 21.68 -14.34 20.36 -14 19 C-13.38125 18.938125 -12.7625 18.87625 -12.125 18.8125 C-9.77454935 18.19475802 -9.77454935 18.19475802 -8.9375 15.75 C-8.628125 14.8425 -8.31875 13.935 -8 13 C-7.443125 12.175 -6.88625 11.35 -6.3125 10.5 C-4.72879935 8.05013558 -4.72879935 8.05013558 -5.3125 5.1875 C-5.6528125 4.1046875 -5.6528125 4.1046875 -6 3 C-4.02 2.01 -2.04 1.02 0 0 Z " fill="#56AEB3" transform="translate(184,190)"/>
<path d="M0 0 C4.02108117 3.81487188 5.8987823 5.75074124 6.15390015 11.41996765 C6.17204905 12.86024494 6.18461734 14.30059882 6.19287109 15.7409668 C6.20104858 16.52834732 6.20922607 17.31572784 6.21765137 18.12696838 C6.24247478 20.7343775 6.25901543 23.3417322 6.2734375 25.94921875 C6.27876118 26.84115244 6.28408485 27.73308613 6.28956985 28.65204811 C6.31629089 33.3750383 6.33566729 38.09800218 6.35009766 42.82104492 C6.36342565 46.7233022 6.39125847 50.62503517 6.43212891 54.52709961 C6.48153564 59.24443314 6.50622876 63.96129185 6.51332474 68.67887306 C6.52002349 70.47256465 6.53520964 72.26624621 6.55921555 74.05978966 C6.77994337 91.55191346 6.77994337 91.55191346 1 98 C-2 100 -2 100 -4.1875 99.625 C-4.785625 99.41875 -5.38375 99.2125 -6 99 C-5.50628906 98.59007812 -5.01257813 98.18015625 -4.50390625 97.7578125 C-3.86324219 97.21898437 -3.22257812 96.68015625 -2.5625 96.125 C-1.92441406 95.59132813 -1.28632813 95.05765625 -0.62890625 94.5078125 C1.10805004 93.0777243 1.10805004 93.0777243 2 91 C2.66 91 3.32 91 4 91 C4.02320886 81.34211342 4.04095859 71.68423651 4.05181217 62.02632809 C4.05702233 57.54138641 4.06408598 53.05646387 4.07543945 48.5715332 C4.0863348 44.24028397 4.0922909 39.9090531 4.09487724 35.57779121 C4.09671953 33.92845941 4.100317 32.27912856 4.10573006 30.62980461 C4.11302878 28.31299573 4.11398723 25.99626196 4.11352539 23.67944336 C4.115746 22.3626207 4.11796661 21.04579803 4.12025452 19.68907166 C3.94281639 14.24576695 3.25521983 9.19953429 1.4375 4.0625 C1.16808594 3.29035156 0.89867187 2.51820313 0.62109375 1.72265625 C0.41613281 1.15417969 0.21117187 0.58570313 0 0 Z " fill="#185F62" transform="translate(337,136)"/>
<path d="M0 0 C0.66 0.99 1.32 1.98 2 3 C-2.32585698 8.71795457 -6.65249325 13.88052382 -12.1796875 18.46484375 C-13.83415684 19.86013656 -15.32215754 21.30880178 -16.8125 22.875 C-19.81206527 25.7888634 -21.51666053 25.99180781 -25.6875 26.0625 C-26.780625 26.041875 -27.87375 26.02125 -29 26 C-28.34 25.67 -27.68 25.34 -27 25 C-27 24.34 -27 23.68 -27 23 C-20.375 20 -20.375 20 -17 20 C-16.9175 19.21625 -16.835 18.4325 -16.75 17.625 C-16.37875 16.325625 -16.37875 16.325625 -16 15 C-14.6846659 14.29848848 -13.34882408 13.63474075 -12 13 C-10.98133771 11.34467377 -9.98189187 9.67739862 -9 8 C-5.5862069 5 -5.5862069 5 -3 5 C-2.690625 4.360625 -2.38125 3.72125 -2.0625 3.0625 C-1 1 -1 1 0 0 Z " fill="#199899" transform="translate(187,214)"/>
<path d="M0 0 C0.82004013 -0.00845947 1.64008026 -0.01691895 2.48497009 -0.02563477 C3.38113037 -0.01956207 4.27729065 -0.01348938 5.2006073 -0.00723267 C6.62058266 -0.0151181 6.62058266 -0.0151181 8.06924438 -0.02316284 C11.20589084 -0.03639094 14.34203163 -0.02761259 17.47868347 -0.01748657 C19.65720721 -0.019507 21.83573029 -0.02241818 24.01425171 -0.02618408 C28.58489914 -0.03061167 33.15537089 -0.02416419 37.72599792 -0.01016235 C43.5804617 0.00689924 49.43451198 -0.00288989 55.28896046 -0.02087975 C59.79029441 -0.03173173 64.29153073 -0.02826418 68.79286766 -0.02049637 C70.95100135 -0.0184967 73.10914393 -0.02094542 75.26726723 -0.02793503 C78.28825384 -0.03556921 81.30857628 -0.02391595 84.32951355 -0.00723267 C85.21960114 -0.01330536 86.10968872 -0.01937805 87.02674866 -0.02563477 C92.10206382 0.02618721 95.51573163 0.6466209 99.95915222 3.38095093 C99.29915222 3.71095093 98.63915222 4.04095093 97.95915222 4.38095093 C96.6988343 3.92440376 96.6988343 3.92440376 95.41305542 3.45863342 C91.06649689 2.10242574 87.21909764 2.10822674 82.69670105 2.13803101 C81.78380814 2.13613266 80.87091522 2.13423431 79.93035889 2.13227844 C76.92554523 2.12858625 73.92097549 2.13925102 70.91618347 2.15048218 C68.82444283 2.15167476 66.73270165 2.15212698 64.64096069 2.15187073 C60.26399875 2.15343279 55.88711891 2.16170292 51.51017761 2.17514038 C45.89439856 2.19216129 40.27870942 2.19595365 34.6629076 2.1951952 C30.34701679 2.19546678 26.03114571 2.20094567 21.71526146 2.20819664 C19.64396501 2.21138225 17.57266633 2.21335046 15.50136757 2.21409035 C12.61201268 2.21625325 9.72275407 2.22499558 6.8334198 2.23568726 C5.54528381 2.23500748 5.54528381 2.23500748 4.23112488 2.23431396 C0.89038452 2.25243261 -1.84950609 2.31717037 -5.04084778 3.38095093 C-5.04084778 4.04095093 -5.04084778 4.70095093 -5.04084778 5.38095093 C-7.41584778 7.06845093 -7.41584778 7.06845093 -10.04084778 8.38095093 C-10.70084778 8.05095093 -11.36084778 7.72095093 -12.04084778 7.38095093 C-11.27772278 6.78282593 -10.51459778 6.18470093 -9.72834778 5.56845093 C-7.14440747 3.58926871 -7.14440747 3.58926871 -5.62543201 1.76804161 C-3.62560593 0.01746246 -2.62951705 0.00417648 0 0 Z " fill="#197579" transform="translate(236.0408477783203,130.61904907226563)"/>
<path d="M0 0 C0.33 0 0.66 0 1 0 C1.06959716 12.2482593 1.12286072 24.49647133 1.15543652 36.74488831 C1.17107349 42.43269856 1.192276 48.12037323 1.22631836 53.80810547 C1.25898172 59.29998096 1.27686782 64.79172626 1.28463173 70.28369141 C1.29016269 72.3759974 1.3009633 74.4682965 1.31719017 76.56054688 C1.33905697 79.49755088 1.34196303 82.43402107 1.34057617 85.37109375 C1.351362 86.2306517 1.36214783 87.09020966 1.3732605 87.97581482 C1.34447786 93.63144551 0.38389293 97.8469417 -2 103 C-4.1875 104.5 -4.1875 104.5 -6 105 C-5.40138258 102.64828869 -4.73075648 100.3140622 -4 98 C-3.01 97.505 -3.01 97.505 -2 97 C-1.0880732 94.31397755 -0.868473 91.81000251 -0.84178162 88.98834229 C-0.82709839 87.80631981 -0.82709839 87.80631981 -0.81211853 86.60041809 C-0.80348534 85.31756172 -0.80348534 85.31756172 -0.79467773 84.00878906 C-0.77982834 82.64728981 -0.77982834 82.64728981 -0.76467896 81.25828552 C-0.73311371 78.26075847 -0.70832614 75.26321557 -0.68359375 72.265625 C-0.66301993 70.18625478 -0.64202334 68.10688871 -0.62062073 66.02752686 C-0.56544428 60.55641028 -0.51601544 55.08525624 -0.46777344 49.61407471 C-0.41752612 44.03044299 -0.36185691 38.44686565 -0.30664062 32.86328125 C-0.19911318 21.90890062 -0.09765615 10.95447277 0 0 Z " fill="#17848B" transform="translate(232,237)"/>
<path d="M0 0 C0.33 0 0.66 0 1 0 C1 27.06 1 54.12 1 82 C2.65 82.33 4.3 82.66 6 83 C6.33 84.65 6.66 86.3 7 88 C7.66 88 8.32 88 9 88 C9.33 88.99 9.66 89.98 10 91 C6.22008324 90.14092801 4.36231034 89.42768808 1.82525635 86.43283081 C-0.32586897 82.38712552 -0.53916647 79.16284485 -0.45410156 74.69970703 C-0.45468567 73.88928452 -0.45526978 73.078862 -0.45587158 72.24388123 C-0.45309839 69.58141331 -0.42204368 66.92008335 -0.390625 64.2578125 C-0.38315986 62.40551363 -0.37746822 60.55320683 -0.37347412 58.70089722 C-0.35823923 53.83782957 -0.31897598 48.9752437 -0.2746582 44.11236572 C-0.23365915 39.14528927 -0.21545322 34.17813458 -0.1953125 29.2109375 C-0.1524796 19.47374726 -0.08425431 9.73691378 0 0 Z " fill="#299296" transform="translate(19,143)"/>
<path d="M0 0 C0.66 0.33 1.32 0.66 2 1 C0.53515625 2.39973958 -0.9296875 3.79947917 -2.39453125 5.19921875 C-6.66855802 9.99320012 -7.45886249 14.06305713 -7.51171875 20.36328125 C-7.52966995 21.15526413 -7.54762115 21.94724701 -7.56611633 22.76322937 C-7.62006838 25.27959962 -7.65406563 27.79578185 -7.6875 30.3125 C-7.72068651 32.02411462 -7.75517741 33.73570448 -7.79101562 35.44726562 C-7.87578582 39.63137442 -7.94266843 43.81542893 -8 48 C-8.66 47.67 -9.32 47.34 -10 47 C-10.04961356 41.98292465 -10.08582043 36.96599365 -10.10986328 31.94873047 C-10.1198914 30.24362702 -10.13351726 28.53854064 -10.15087891 26.83349609 C-10.17526803 24.37593358 -10.18651512 21.91859939 -10.1953125 19.4609375 C-10.20563507 18.70444916 -10.21595764 17.94796082 -10.22659302 17.16854858 C-10.22752218 12.73809553 -9.81963097 9.06241381 -8 5 C-5.5625 3.8125 -5.5625 3.8125 -3 3 C-1.22722741 1.47992158 -1.22722741 1.47992158 0 0 Z " fill="#17B9BE" transform="translate(139,25)"/>
<path d="M0 0 C0.5775 0.226875 1.155 0.45375 1.75 0.6875 C1.21890625 1.27917969 0.6878125 1.87085938 0.140625 2.48046875 C-6.52738162 9.01880075 -6.52738162 9.01880075 -10.8125 16.9375 C-10.956875 17.515 -11.10125 18.0925 -11.25 18.6875 C-12.24 19.0175 -13.23 19.3475 -14.25 19.6875 C-14.25 20.6775 -14.25 21.6675 -14.25 22.6875 C-14.91 22.6875 -15.57 22.6875 -16.25 22.6875 C-16.188125 23.55375 -16.12625 24.42 -16.0625 25.3125 C-16.27455502 29.12949033 -17.37044307 31.39827536 -19.25 34.6875 C-19.58 34.6875 -19.91 34.6875 -20.25 34.6875 C-19.83846263 29.71656176 -19.45399168 25.24241614 -17.25 20.6875 C-16.59 20.6875 -15.93 20.6875 -15.25 20.6875 C-14.98960937 19.82511719 -14.72921875 18.96273437 -14.4609375 18.07421875 C-13.22599496 14.62036332 -11.71477526 11.66939449 -9.875 8.5 C-9.28976563 7.47519531 -8.70453125 6.45039063 -8.1015625 5.39453125 C-4.02904678 -0.55958983 -4.02904678 -0.55958983 0 0 Z " fill="#1A9498" transform="translate(226.25,139.3125)"/>
<path d="M0 0 C0.66 0.33 1.32 0.66 2 1 C0.68 4.3 -0.64 7.6 -2 11 C-2.66 11 -3.32 11 -4 11 C-4.15855469 11.72703125 -4.31710938 12.4540625 -4.48046875 13.203125 C-6.25765061 20.86169877 -8.84063856 27.81584148 -12 35 C-12.67335152 36.66397715 -13.34222739 38.32980318 -14 40 C-15.33329006 37.33341988 -14.98589615 35.52299672 -14.75 32.5625 C-14.68296875 31.59441406 -14.6159375 30.62632812 -14.546875 29.62890625 C-13.93354213 26.68052752 -13.19594379 25.94125959 -11 24 C-10.67 23.01 -10.34 22.02 -10 21 C-9.34 21 -8.68 21 -8 21 C-8.061875 19.700625 -8.061875 19.700625 -8.125 18.375 C-7.9687932 14.15741632 -6.87977173 10.75954347 -5 7 C-4.34 7 -3.68 7 -3 7 C-2.67 5.68 -2.34 4.36 -2 3 C-1.34 3 -0.68 3 0 3 C0 2.01 0 1.02 0 0 Z " fill="#3BA9A9" transform="translate(203,141)"/>
<path d="M0 0 C0.66 0 1.32 0 2 0 C0.58163643 5.1576857 -1.67391575 9.79975258 -5 14 C-5.66 14 -6.32 14 -7 14 C-7.12375 14.763125 -7.2475 15.52625 -7.375 16.3125 C-8 19 -8 19 -10 22 C-10.99 22 -11.98 22 -13 22 C-13.28875 22.5775 -13.5775 23.155 -13.875 23.75 C-14.24625 24.4925 -14.6175 25.235 -15 26 C-15.268125 26.680625 -15.53625 27.36125 -15.8125 28.0625 C-17.94060542 31.53467201 -21.25122773 32.75040924 -25 34 C-25 33.34 -25 32.68 -25 32 C-24.34 32 -23.68 32 -23 32 C-22.67 31.01 -22.34 30.02 -22 29 C-21.34 29 -20.68 29 -20 29 C-19.5978125 28.13375 -19.5978125 28.13375 -19.1875 27.25 C-17.97070811 24.94449957 -16.69666121 22.97943808 -15 21 C-14.34 21 -13.68 21 -13 21 C-12.67 20.01 -12.34 19.02 -12 18 C-11.34 18 -10.68 18 -10 18 C-9.62875 16.948125 -9.62875 16.948125 -9.25 15.875 C-7.83297927 12.61585232 -5.99762681 9.93768649 -4 7 C-2.62858425 4.686319 -1.31431288 2.34698729 0 0 Z " fill="#4FC5CE" transform="translate(137,154)"/>
<path d="M0 0 C0.66 0.33 1.32 0.66 2 1 C-0.46153846 5.8 -0.46153846 5.8 -3.1875 6.8125 C-3.785625 6.874375 -4.38375 6.93625 -5 7 C-5 7.66 -5 8.32 -5 9 C-5.96186125 10.03673668 -6.96961226 11.03134056 -8 12 C-9.0549488 13.15467033 -10.09654533 14.32167002 -11.125 15.5 C-11.64320313 16.0878125 -12.16140625 16.675625 -12.6953125 17.28125 C-14.20493631 19.07861226 -14.20493631 19.07861226 -15 22 C-15.99 22.66 -16.98 23.32 -18 24 C-19.11639354 26.07807494 -19.11639354 26.07807494 -20 28.4375 C-21.26081035 31.62629951 -22.41700782 33.7178677 -25 36 C-24.34 33.69 -23.68 31.38 -23 29 C-22.34 29 -21.68 29 -21 29 C-20.8453125 27.6696875 -20.8453125 27.6696875 -20.6875 26.3125 C-19.98151222 22.91092251 -19.00689954 20.80965935 -17 18 C-16.34 17.67 -15.68 17.34 -15 17 C-14.5875 16.29875 -14.175 15.5975 -13.75 14.875 C-10.1116587 8.897725 -5.4747307 4.30157412 0 0 Z " fill="#154244" transform="translate(222,123)"/>
<path d="M0 0 C0.33 0 0.66 0 1 0 C1.02315408 9.33581791 1.04093076 18.67162597 1.05181217 28.00746632 C1.05703427 32.34230881 1.06411976 36.67713169 1.07543945 41.01196289 C1.08629217 45.19406515 1.09228192 49.37614852 1.09487724 53.55826378 C1.09672718 55.15508001 1.10033955 56.75189518 1.10573006 58.34870338 C1.1129721 60.58250806 1.1139896 62.81623433 1.11352539 65.05004883 C1.115746 66.32245926 1.11796661 67.59486969 1.12025452 68.90583801 C1 72 1 72 0 75 C-0.66 75 -1.32 75 -2 75 C-1.83923477 74.15468719 -1.67846954 73.30937439 -1.51283264 72.43844604 C-0.98645491 68.90918271 -0.84040947 65.55193872 -0.79467773 61.98486328 C-0.78477814 61.31099075 -0.77487854 60.63711823 -0.76467896 59.94282532 C-0.73331816 57.73535568 -0.70840816 55.52786459 -0.68359375 53.3203125 C-0.66300221 51.78188547 -0.64200518 50.24346382 -0.62062073 48.70504761 C-0.56562715 44.67082088 -0.51611845 40.63654503 -0.46777344 36.60223389 C-0.41739176 32.47957019 -0.36179299 28.35697715 -0.30664062 24.234375 C-0.19933719 16.15630989 -0.09783137 8.07818536 0 0 Z " fill="#239B9C" transform="translate(341,152)"/>
<path d="M0 0 C2.64 0 5.28 0 8 0 C8 0.33 8 0.66 8 1 C6.35 1.33 4.7 1.66 3 2 C1.96334597 13.09537801 1.68702782 24.1774484 1.4375 35.3125 C1.39419386 37.13216895 1.35057626 38.95183052 1.30664062 40.77148438 C1.20084182 45.18091281 1.0992387 49.59041925 1 54 C0.67 54 0.34 54 0 54 C0 36.18 0 18.36 0 0 Z " fill="#14A6A9" transform="translate(129,250)"/>
<path d="M0 0 C0 0.99 0 1.98 0 3 C-4.38566071 4.08794502 -8.65582765 4.12897314 -13.14453125 4.09765625 C-13.91431808 4.0962413 -14.68410492 4.09482635 -15.47721863 4.09336853 C-17.92235288 4.08779606 -20.36739368 4.07524871 -22.8125 4.0625 C-24.47591013 4.05748144 -26.1393217 4.05291915 -27.80273438 4.04882812 C-31.86852528 4.03783566 -35.93424683 4.0205901 -40 4 C-36.86588797 1.91059198 -36.23717122 1.76074621 -32.69140625 1.83984375 C-31.44713867 1.8562793 -31.44713867 1.8562793 -30.17773438 1.87304688 C-28.88319336 1.90495117 -28.88319336 1.90495117 -27.5625 1.9375 C-25.85555619 1.97207426 -24.14851474 2.00218079 -22.44140625 2.02734375 C-21.68545166 2.04531006 -20.92949707 2.06327637 -20.15063477 2.08178711 C-17.96044971 1.99849593 -16.11138135 1.56083567 -14 1 C-12.14633307 0.95695403 -10.2912275 0.95964675 -8.4375 1 C-5.18889281 1.07052607 -3.10792434 1.03597478 0 0 Z " fill="#45B9BF" transform="translate(136,231)"/>
<path d="M0 0 C5.65999023 -0.02467467 11.31994932 -0.04284788 16.97998047 -0.05493164 C18.90641831 -0.05996787 20.83285231 -0.06679712 22.75927734 -0.07543945 C25.52442368 -0.08753608 28.28951958 -0.09323533 31.0546875 -0.09765625 C32.3516304 -0.10539818 32.3516304 -0.10539818 33.67477417 -0.11329651 C39.77225659 -0.11387171 39.77225659 -0.11387171 42 1 C42 1.66 42 2.32 42 3 C42.928125 3.1546875 42.928125 3.1546875 43.875 3.3125 C46 4 46 4 48 7 C48 7.99 48 8.98 48 10 C47.34 10 46.68 10 46 10 C46 9.01 46 8.02 46 7 C44.35 7 42.7 7 41 7 C40.87625 6.360625 40.7525 5.72125 40.625 5.0625 C40.41875 4.381875 40.2125 3.70125 40 3 C36.72684491 1.36342246 33.09377769 1.7569193 29.4921875 1.68359375 C28.65156769 1.66281265 27.81094788 1.64203156 26.94485474 1.62062073 C24.25498765 1.55514561 21.56502157 1.4962498 18.875 1.4375 C17.05337511 1.39431284 15.23176029 1.35069848 13.41015625 1.30664062 C8.94020606 1.19946632 4.47015614 1.09819315 0 1 C0 0.67 0 0.34 0 0 Z " fill="#40ACAF" transform="translate(182,23)"/>
<path d="M0 0 C0.66 0.33 1.32 0.66 2 1 C0.7934375 2.2684375 0.7934375 2.2684375 -0.4375 3.5625 C-3.21628662 6.8515158 -3.74117776 9.68629604 -4 14 C-3.34 14.33 -2.68 14.66 -2 15 C-2.33 15.33 -2.66 15.66 -3 16 C-3.23527773 18.34987262 -3.41386417 20.70556039 -3.5625 23.0625 C-3.64628906 24.35285156 -3.73007812 25.64320313 -3.81640625 26.97265625 C-3.87699219 27.97167969 -3.93757813 28.97070312 -4 30 C-3.34 30.33 -2.68 30.66 -2 31 C-2.33 31.66 -2.66 32.32 -3 33 C-3.03044858 35.53593209 -2.93314983 38.05565048 -2.83984375 40.58984375 C-3 43 -3 43 -5 46 C-5.12377604 40.25260242 -5.21442248 34.50598373 -5.2746582 28.75756836 C-5.29977281 26.80300377 -5.33387131 24.84853283 -5.37719727 22.89428711 C-5.43798434 20.08163332 -5.46623983 17.27022298 -5.48828125 14.45703125 C-5.51408768 13.58601273 -5.5398941 12.7149942 -5.56648254 11.81758118 C-5.5685873 7.24490243 -5.47340398 5.57826993 -2.46948242 1.90893555 C-1.65455322 1.27898682 -0.83962402 0.64903809 0 0 Z " fill="#1BB7BC" transform="translate(25,138)"/>
<path d="M0 0 C1.08809212 0.00212242 1.08809212 0.00212242 2.19816589 0.00428772 C4.50064325 0.00985694 6.8030211 0.02240364 9.10546875 0.03515625 C10.67252463 0.04017523 12.23958205 0.04473744 13.80664062 0.04882812 C17.63545464 0.05981627 21.46419486 0.07705952 25.29296875 0.09765625 C23.29296875 2.09765625 23.29296875 2.09765625 20.66674805 2.30883789 C19.03346558 2.28358032 19.03346558 2.28358032 17.3671875 2.2578125 C15.58344727 2.24137695 15.58344727 2.24137695 13.76367188 2.22460938 C11.89098633 2.19270508 11.89098633 2.19270508 9.98046875 2.16015625 C7.52610189 2.12562373 5.07166798 2.09550706 2.6171875 2.0703125 C0.97882935 2.04336304 0.97882935 2.04336304 -0.69262695 2.01586914 C-5.94615409 2.15840835 -10.68342391 3.62012468 -15.70703125 5.09765625 C-15.70703125 4.43765625 -15.70703125 3.77765625 -15.70703125 3.09765625 C-10.71319807 -0.23156587 -5.85395418 -0.04340905 0 0 Z " fill="#1DB2B6" transform="translate(43.70703125,131.90234375)"/>
<path d="M0 0 C0.33 0 0.66 0 1 0 C1 2.97 1 5.94 1 9 C0.01 9.33 -0.98 9.66 -2 10 C-2.66 13.3 -3.32 16.6 -4 20 C-4.66 20 -5.32 20 -6 20 C-6 21.32 -6 22.64 -6 24 C-6.66 24 -7.32 24 -8 24 C-8.28875 24.804375 -8.5775 25.60875 -8.875 26.4375 C-10 29 -10 29 -12 30 C-10.27933894 24.55123997 -8.15294651 19.28830549 -6 14 C-5.34 14 -4.68 14 -4 14 C-3.896875 13.175 -3.79375 12.35 -3.6875 11.5 C-2.88353944 7.40710988 -1.53647842 3.87459775 0 0 Z " fill="#1A8586" transform="translate(203,178)"/>
<path d="M0 0 C1.4540625 0.0309375 1.4540625 0.0309375 2.9375 0.0625 C-3.17962297 6.8593033 -9.23138865 7.97647336 -18.0625 9.0625 C-15.60276871 4.9256792 -13.36331994 3.60313277 -8.875 2.3125 C-7.99457031 2.09078125 -7.11414063 1.8690625 -6.20703125 1.640625 C-0.13112599 0.00267604 -0.13112599 0.00267604 0 0 Z " fill="#53A9AF" transform="translate(154.0625,224.9375)"/>
<path d="M0 0 C-0.33 0.99 -0.66 1.98 -1 3 C-5 4 -5 4 -15 4 C-15 11.26 -15 18.52 -15 26 C-15.33 26 -15.66 26 -16 26 C-16.02887236 22.18751574 -16.04675492 18.3750593 -16.0625 14.5625 C-16.07087891 13.47388672 -16.07925781 12.38527344 -16.08789062 11.26367188 C-16.09111328 10.22919922 -16.09433594 9.19472656 -16.09765625 8.12890625 C-16.10289307 7.17056885 -16.10812988 6.21223145 -16.11352539 5.22485352 C-16 3 -16 3 -15 2 C-13.23869087 1.6011581 -11.46520765 1.25536826 -9.6875 0.9375 C-8.23923828 0.67259766 -8.23923828 0.67259766 -6.76171875 0.40234375 C-4 0 -4 0 0 0 Z " fill="#178084" transform="translate(144,246)"/>
<path d="M0 0 C0.99 0 1.98 0 3 0 C3 0.66 3 1.32 3 2 C-2.47619048 7 -2.47619048 7 -5 7 C-5.66 8.32 -6.32 9.64 -7 11 C-7.66 11 -8.32 11 -9 11 C-9.4021875 11.8353125 -9.4021875 11.8353125 -9.8125 12.6875 C-11.10122647 15.19712523 -12.52926478 17.59334236 -14 20 C-15 18 -15 18 -14.36328125 15.94140625 C-10.77997844 7.82902183 -10.77997844 7.82902183 -7 6 C-6.01 6 -5.02 6 -4 6 C-4 5.01 -4 4.02 -4 3 C-3.01 3 -2.02 3 -1 3 C-0.67 2.01 -0.34 1.02 0 0 Z " fill="#3EA6A9" transform="translate(221,121)"/>
<path d="M0 0 C0 3.20395416 -0.74335022 5.09399739 -2 8 C-2.66 8 -3.32 8 -4 8 C-4.13277344 8.68449219 -4.26554688 9.36898437 -4.40234375 10.07421875 C-5.06825343 13.33412954 -5.80956612 16.5716107 -6.5625 19.8125 C-6.83191406 20.97394531 -7.10132813 22.13539063 -7.37890625 23.33203125 C-7.58386719 24.21246094 -7.78882813 25.09289062 -8 26 C-8.66 26 -9.32 26 -10 26 C-10.042721 24.33388095 -10.04063832 22.66617115 -10 21 C-9.67 20.67 -9.34 20.34 -9 20 C-8.855625 18.948125 -8.71125 17.89625 -8.5625 16.8125 C-8.04366167 13.29592907 -7.33130253 10.28910038 -6 7 C-5.34 6.67 -4.68 6.34 -4 6 C-3.855625 5.360625 -3.71125 4.72125 -3.5625 4.0625 C-3 2 -3 2 0 0 Z " fill="#0A3E40" transform="translate(213,152)"/>
<path d="M0 0 C0.58984375 1.8359375 0.58984375 1.8359375 1 4 C-0.58524505 6.89479531 -1.90466679 8.59316195 -5.05078125 9.76171875 C-7.01567105 10.25381371 -9.0076323 10.63473259 -11 11 C-11 10.34 -11 9.68 -11 9 C-9.21895282 7.39821407 -7.37462722 5.86618074 -5.5 4.375 C-4.4790625 3.55773437 -3.458125 2.74046875 -2.40625 1.8984375 C-1.6121875 1.27195313 -0.818125 0.64546875 0 0 Z " fill="#1B3A3B" transform="translate(171,213)"/>
<path d="M0 0 C0.80867674 2.33733665 1.12401827 3.61044569 0.36328125 6 C-1.6645537 9.85967099 -3.48448379 13.27831003 -7 16 C-7.99 16 -8.98 16 -10 16 C-8.56058464 12.96200316 -6.88346492 10.22031941 -5 7.4375 C-4.484375 6.67308594 -3.96875 5.90867188 -3.4375 5.12109375 C-2.963125 4.42113281 -2.48875 3.72117188 -2 3 C-1.34 2.01 -0.68 1.02 0 0 Z " fill="#1B3D3F" transform="translate(182,197)"/>
<path d="M0 0 C1.98 0 3.96 0 6 0 C4.95125002 2.62187494 4.35068687 3.79371361 1.875 5.25 C1.25625 5.4975 0.6375 5.745 0 6 C0 6.66 0 7.32 0 8 C-2.90600261 9.25664978 -4.79604584 10 -8 10 C-7.67 9.01 -7.34 8.02 -7 7 C-5.35 7 -3.7 7 -2 7 C-2 6.34 -2 5.68 -2 5 C-1.34 5 -0.68 5 0 5 C0 3.35 0 1.7 0 0 Z " fill="#56B7BB" transform="translate(160,216)"/>
<path d="M0 0 C0.66 0 1.32 0 2 0 C0.85248597 4.7539867 -0.38262517 9.37892907 -2 14 C-2.66 14 -3.32 14 -4 14 C-4.33 15.65 -4.66 17.3 -5 19 C-6.43614219 16.12771562 -5.49790058 14.54313963 -4.625 11.5 C-4.34914062 10.5203125 -4.07328125 9.540625 -3.7890625 8.53125 C-3 6 -3 6 -2 4 C-1.34 4 -0.68 4 0 4 C0 2.68 0 1.36 0 0 Z " fill="#082C30" transform="translate(201,178)"/>
<path d="M0 0 C-2.57952403 1.17578304 -5.16303938 2.340791 -7.75 3.5 C-8.47960937 3.83386719 -9.20921875 4.16773438 -9.9609375 4.51171875 C-10.66992188 4.82753906 -11.37890625 5.14335937 -12.109375 5.46875 C-12.75874023 5.76201172 -13.40810547 6.05527344 -14.07714844 6.35742188 C-16 7 -16 7 -20 7 C-19.67 6.01 -19.34 5.02 -19 4 C-14.68964518 2.65743047 -11.52218352 2 -7 2 C-7 1.34 -7 0.68 -7 0 C-3.98968256 -0.93423645 -3.13349732 -1.04449911 0 0 Z " fill="#062D2F" transform="translate(160,239)"/>
<path d="M0 0 C0.66 0.99 1.32 1.98 2 3 C0.73755365 4.65227538 -0.53525235 6.29663951 -1.8125 7.9375 C-2.87404297 9.31228516 -2.87404297 9.31228516 -3.95703125 10.71484375 C-6 13 -6 13 -9 14 C-8.67 13.01 -8.34 12.02 -8 11 C-7.34 11 -6.68 11 -6 11 C-5.9175 10.46375 -5.835 9.9275 -5.75 9.375 C-4.64068829 5.86217957 -2.617408 2.617408 0 0 Z " fill="#1B9BA0" transform="translate(187,214)"/>
<path d="M0 0 C0.33 0 0.66 0 1 0 C1.43472498 5.2166998 1.43472498 5.2166998 1 8 C-1.3125 10.5625 -1.3125 10.5625 -4 12 C-4.99 11.67 -5.98 11.34 -7 11 C-6.34 10.67 -5.68 10.34 -5 10 C-4.690625 9.071875 -4.38125 8.14375 -4.0625 7.1875 C-3.06243741 4.18731223 -2.07549722 2.34621425 0 0 Z " fill="#34BAC4" transform="translate(230,109)"/>
<path d="M0 0 C0.33 0 0.66 0 1 0 C1.6524214 5.2193712 0.12076053 8.02909179 -2.61328125 12.265625 C-4 14 -4 14 -7 16 C-9.1875 15.625 -9.1875 15.625 -11 15 C-10.50628906 14.59007812 -10.01257813 14.18015625 -9.50390625 13.7578125 C-8.86324219 13.21898437 -8.22257812 12.68015625 -7.5625 12.125 C-6.92441406 11.59132812 -6.28632813 11.05765625 -5.62890625 10.5078125 C-3.89194996 9.0777243 -3.89194996 9.0777243 -3 7 C-2.34 7 -1.68 7 -1 7 C-0.67 4.69 -0.34 2.38 0 0 Z " fill="#115053" transform="translate(342,220)"/>
<path d="M0 0 C0.66 0.33 1.32 0.66 2 1 C0.625 2.5 0.625 2.5 -1 4 C-1.66 4 -2.32 4 -3 4 C-3.33 4.99 -3.66 5.98 -4 7 C-6.06640625 7.94921875 -6.06640625 7.94921875 -8.5625 8.6875 C-9.80193359 9.06455078 -9.80193359 9.06455078 -11.06640625 9.44921875 C-11.70449219 9.63097656 -12.34257813 9.81273437 -13 10 C-9.89079275 5.91361333 -8.00543035 3.58066221 -3 2 C-2.01 1.34 -1.02 0.68 0 0 Z " fill="#50C7CD" transform="translate(99,197)"/>
<path d="M0 0 C0 0.33 0 0.66 0 1 C-0.84884766 1.16435547 -0.84884766 1.16435547 -1.71484375 1.33203125 C-2.81505859 1.56986328 -2.81505859 1.56986328 -3.9375 1.8125 C-4.66839844 1.96332031 -5.39929688 2.11414063 -6.15234375 2.26953125 C-7.06693359 2.63111328 -7.06693359 2.63111328 -8 3 C-8.33 3.99 -8.66 4.98 -9 6 C-9.9590625 6.2165625 -9.9590625 6.2165625 -10.9375 6.4375 C-13.20311706 6.80104993 -13.20311706 6.80104993 -14.25 9.0625 C-14.4975 9.701875 -14.745 10.34125 -15 11 C-15 7.89448334 -14.4606285 6.64738916 -13 4 C-12.01 4 -11.02 4 -10 4 C-9.67 3.01 -9.34 2.02 -9 1 C-6.04335481 -0.4783226 -3.25770263 -0.06032783 0 0 Z " fill="#23989A" transform="translate(36,132)"/>
<path d="M0 0 C-0.52393706 5.86809507 -1.76108858 10.54873741 -4 16 C-5.33329006 13.33341988 -4.98589615 11.52299672 -4.75 8.5625 C-4.68296875 7.59441406 -4.6159375 6.62632812 -4.546875 5.62890625 C-4.04053022 3.19483455 -3.03016759 0 0 0 Z " fill="#46A8AD" transform="translate(193,165)"/>
<path d="M0 0 C1.98 0 3.96 0 6 0 C5.01 0.66 4.02 1.32 3 2 C2.505 2.515625 2.01 3.03125 1.5 3.5625 C0 5 0 5 -3 6 C-4.22445284 7.62948064 -4.22445284 7.62948064 -5.1875 9.5625 C-5.785625 10.696875 -6.38375 11.83125 -7 13 C-8 11 -8 11 -7.9375 8.625 C-6.61775279 4.92970782 -4.28249482 3.98317396 -1 2 C-0.67 1.34 -0.34 0.68 0 0 Z " fill="#083839" transform="translate(26,131)"/>
<path d="M0 0 C0.66 0.33 1.32 0.66 2 1 C-1.64372149 7.55869868 -5.12581185 10.35608148 -12 13 C-11.67 12.01 -11.34 11.02 -11 10 C-10.38125 9.71125 -9.7625 9.4225 -9.125 9.125 C-6.31264495 7.63610615 -5.58919219 5.71486999 -4 3 C-1.8125 1.1875 -1.8125 1.1875 0 0 Z " fill="#15666A" transform="translate(182,219)"/>
<path d="M0 0 C0.33 1.32 0.66 2.64 1 4 C0.34 4 -0.32 4 -1 4 C-0.938125 4.86625 -0.87625 5.7325 -0.8125 6.625 C-1.02455502 10.44199033 -2.12044307 12.71077536 -4 16 C-4.33 16 -4.66 16 -5 16 C-4.58846263 11.02906176 -4.20399168 6.55491614 -2 2 C-1.34 2 -0.68 2 0 2 C0 1.34 0 0.68 0 0 Z " fill="#1A8789" transform="translate(211,158)"/>
<path d="M0 0 C1.32 0.33 2.64 0.66 4 1 C4.33 2.65 4.66 4.3 5 6 C5.66 6 6.32 6 7 6 C7.33 6.99 7.66 7.98 8 9 C2.37865749 7.53356282 2.37865749 7.53356282 0.625 5.0625 C0 3 0 3 0 0 Z " fill="#229EA3" transform="translate(21,225)"/>
<path d="M0 0 C0.33 0.99 0.66 1.98 1 3 C-0.41225926 3.67595315 -1.83002905 4.34040059 -3.25 5 C-4.43335937 5.556875 -4.43335937 5.556875 -5.640625 6.125 C-8 7 -8 7 -12 7 C-12 6.34 -12 5.68 -12 5 C-11.30132812 4.80664062 -10.60265625 4.61328125 -9.8828125 4.4140625 C-8.97273438 4.15367187 -8.06265625 3.89328125 -7.125 3.625 C-6.22007813 3.36976563 -5.31515625 3.11453125 -4.3828125 2.8515625 C-1.85430274 2.1395685 -1.85430274 2.1395685 0 0 Z " fill="#48C4CD" transform="translate(76,210)"/>
<path d="M0 0 C0.66 0 1.32 0 2 0 C1.71572583 1.58467728 1.42225182 3.1677057 1.125 4.75 C0.88136719 6.07257813 0.88136719 6.07257813 0.6328125 7.421875 C0.03203736 9.86947744 -0.77997117 11.80599857 -2 14 C-2.33 14 -2.66 14 -3 14 C-3 12.02 -3 10.04 -3 8 C-2.34 8 -1.68 8 -1 8 C-1.020625 7.05125 -1.04125 6.1025 -1.0625 5.125 C-1 2 -1 2 0 0 Z " fill="#399493" transform="translate(196,154)"/>
<path d="M0 0 C0.33 1.32 0.66 2.64 1 4 C0.34 4 -0.32 4 -1 4 C-1.268125 4.9075 -1.53625 5.815 -1.8125 6.75 C-2.89576294 9.71471963 -3.98359457 11.6169754 -6 14 C-5.05944297 8.31953056 -4.13782924 4.27575688 0 0 Z " fill="#4EC5CC" transform="translate(149,134)"/>
<path d="M0 0 C2.28804937 1.65883579 3.56463437 2.62283307 5 5 C5.44207004 8.70298665 5.29251428 12.28831877 5 16 C4.67 16 4.34 16 4 16 C3.896875 15.030625 3.79375 14.06125 3.6875 13.0625 C3.05370121 8.51406161 1.55244173 4.30582896 0 0 Z " fill="#1B7A7A" transform="translate(337,136)"/>
<path d="M0 0 C0 0.66 0 1.32 0 2 C-3.33909037 4.22606025 -6.09914263 5.11033078 -10 6 C-12.22265625 5.55078125 -12.22265625 5.55078125 -14 5 C-12.04350603 4.16235732 -10.08474444 3.33000941 -8.125 2.5 C-6.48917969 1.80390625 -6.48917969 1.80390625 -4.8203125 1.09375 C-2 0 -2 0 0 0 Z " fill="#197D7E" transform="translate(158,240)"/>
<path d="M0 0 C0 3.10551666 -0.5393715 4.35261084 -2 7 C-2.66 7 -3.32 7 -4 7 C-4 9.97 -4 12.94 -4 16 C-4.33 16 -4.66 16 -5 16 C-5.027193 14.41676312 -5.04648306 12.83338938 -5.0625 11.25 C-5.07410156 10.36828125 -5.08570312 9.4865625 -5.09765625 8.578125 C-5.00706876 6.18661535 -4.80370774 4.25038166 -4 2 C-1.9375 0.75 -1.9375 0.75 0 0 Z " fill="#0A3734" transform="translate(131,28)"/>
<path d="M0 0 C-0.33 0.99 -0.66 1.98 -1 3 C-4.3 3.33 -7.6 3.66 -11 4 C-10.01 3.67 -9.02 3.34 -8 3 C-8 2.34 -8 1.68 -8 1 C-5.10765685 0.17361624 -3.11257569 0 0 0 Z " fill="#198D8E" transform="translate(144,246)"/>
<path d="M0 0 C0.33 0 0.66 0 1 0 C1 1.98 1 3.96 1 6 C0.34 6 -0.32 6 -1 6 C-1.28875 6.804375 -1.5775 7.60875 -1.875 8.4375 C-3 11 -3 11 -5 12 C-3.68938409 7.76570244 -2.05643741 3.92592596 0 0 Z " fill="#156C6E" transform="translate(196,196)"/>
<path d="M0 0 C0.33 0 0.66 0 1 0 C1.50423019 5.29441695 0.18923033 7.81413519 -3 12 C-3.66 11.67 -4.32 11.34 -5 11 C-4.39816251 8.97954558 -3.72693904 6.97888961 -3 5 C-2.34 4.67 -1.68 4.34 -1 4 C-0.34786708 1.97536745 -0.34786708 1.97536745 0 0 Z " fill="#1D8B89" transform="translate(231,330)"/>
<path d="M0 0 C0.33 0.99 0.66 1.98 1 3 C-1.15343189 6.23014784 -2.27059611 7.75686537 -6 9 C-6.66 8.34 -7.32 7.68 -8 7 C-7.50628906 6.66226562 -7.01257813 6.32453125 -6.50390625 5.9765625 C-5.86324219 5.53054688 -5.22257813 5.08453125 -4.5625 4.625 C-3.92441406 4.18414062 -3.28632813 3.74328125 -2.62890625 3.2890625 C-0.86259072 2.07839147 -0.86259072 2.07839147 0 0 Z " fill="#072227" transform="translate(230,338)"/>
<path d="M0 0 C0.99 0 1.98 0 3 0 C2.6875 1.875 2.6875 1.875 2 4 C-1 6 -1 6 -5 6 C-5 5.34 -5 4.68 -5 4 C-3.35 3.67 -1.7 3.34 0 3 C0 2.01 0 1.02 0 0 Z " fill="#21B3B4" transform="translate(225,337)"/>
<path d="M0 0 C1.98 0 3.96 0 6 0 C3.373409 2.91843445 0.33023661 4.94517315 -3 7 C-3.66 7 -4.32 7 -5 7 C-5 6.34 -5 5.68 -5 5 C-4.01 4.67 -3.02 4.34 -2 4 C-0.79117904 1.99983534 -0.79117904 1.99983534 0 0 Z " fill="#408787" transform="translate(151,225)"/>
<path d="M0 0 C0 0.99 0 1.98 0 3 C-1.2065625 3.433125 -1.2065625 3.433125 -2.4375 3.875 C-5.1326468 4.73262568 -5.1326468 4.73262568 -6 7 C-7.32 6.67 -8.64 6.34 -10 6 C-7.35570758 3.077361 -4.105808 0 0 0 Z " fill="#4EC6CB" transform="translate(112,189)"/>
<path d="M0 0 C0.66 0 1.32 0 2 0 C2.77446576 2.78807674 3.21049043 4.43329501 2.1875 7.1875 C1 9 1 9 -1 11 C-1.14285714 3.57142857 -1.14285714 3.57142857 0 0 Z " fill="#15A5A6" transform="translate(205,174)"/>
<path d="M0 0 C2.125 0.375 2.125 0.375 4 1 C1.6875 3.5 1.6875 3.5 -1 6 C-1.99 6 -2.98 6 -4 6 C-2.84826645 3.53199953 -1.95216435 1.95216435 0 0 Z " fill="#22A2A4" transform="translate(136,24)"/>
<path d="M0 0 C1.50560497 2.85410334 2.63216796 5.68124642 3.625 8.75 C3.88539063 9.54921875 4.14578125 10.3484375 4.4140625 11.171875 C4.60742188 11.77515625 4.80078125 12.3784375 5 13 C2.53686261 11.17251097 1.16571382 9.77023784 0.51171875 6.73046875 C0.27481707 4.48520654 0.09638651 2.25544422 0 0 Z " fill="#1E8E8F" transform="translate(128,327)"/>
<path d="M0 0 C0.66 0.33 1.32 0.66 2 1 C1.0625 2.9375 1.0625 2.9375 -1 5 C-3.9858081 5.66174825 -6.94861869 5.87205948 -10 6 C-7.35603236 3.35603236 -4.42496181 2.43225676 -1 1 C-0.67 0.67 -0.34 0.34 0 0 Z " fill="#0C2826" transform="translate(152,228)"/>
<path d="M0 0 C1.21236328 0.02707031 1.21236328 0.02707031 2.44921875 0.0546875 C3.37154297 0.08949219 3.37154297 0.08949219 4.3125 0.125 C3.9825 0.785 3.6525 1.445 3.3125 2.125 C0.98874308 2.51960023 -1.3468935 2.84730092 -3.6875 3.125 C-5.02667261 3.43403983 -6.36403254 3.75442911 -7.6875 4.125 C-7.6875 3.465 -7.6875 2.805 -7.6875 2.125 C-4.48369983 -0.01086678 -3.66810033 -0.10632175 0 0 Z " fill="#15B9BD" transform="translate(35.6875,132.875)"/>
<path d="M0 0 C-0.33 0.99 -0.66 1.98 -1 3 C-8.625 4 -8.625 4 -12 4 C-7.84698176 1.34668279 -4.92975386 0 0 0 Z " fill="#53BAC2" transform="translate(150,227)"/>
<path d="M0 0 C0.66 0 1.32 0 2 0 C1.40312566 3.34249629 0.26396123 5.46436342 -2 8 C-2.66 8 -3.32 8 -4 8 C-2.66666667 5.33333333 -1.33333333 2.66666667 0 0 Z " fill="#1BA1A6" transform="translate(195,202)"/>
<path d="M0 0 C1.65 0 3.3 0 5 0 C3.35 1.65 1.7 3.3 0 5 C-0.99 4.67 -1.98 4.34 -3 4 C-2.34 3.67 -1.68 3.34 -1 3 C-0.67 2.01 -0.34 1.02 0 0 Z " fill="#40ADB3" transform="translate(226,116)"/>
<path d="M0 0 C1.65 0.33 3.3 0.66 5 1 C5.33 2.65 5.66 4.3 6 6 C5.34 6 4.68 6 4 6 C4 5.01 4 4.02 4 3 C2.35 3 0.7 3 -1 3 C-0.67 2.01 -0.34 1.02 0 0 Z " fill="#4DB7B8" transform="translate(224,27)"/>
<path d="M0 0 C0.33 1.32 0.66 2.64 1 4 C-0.98 5.32 -2.96 6.64 -5 8 C-3.8141763 4.62496331 -2.72426311 2.35277269 0 0 Z " fill="#17B4BA" transform="translate(175,92)"/>
<path d="M0 0 C0 0.99 0 1.98 0 3 C-3 5 -3 5 -5.1875 4.625 C-5.785625 4.41875 -6.38375 4.2125 -7 4 C-4.69 2.68 -2.38 1.36 0 0 Z " fill="#0B3A3D" transform="translate(338,231)"/>
<path d="M0 0 C1.32 0 2.64 0 4 0 C2.86695008 3.39914975 1.87481525 4.05254451 -1 6 C-1.042721 4.33388095 -1.04063832 2.66617115 -1 1 C-0.67 0.67 -0.34 0.34 0 0 Z " fill="#09292C" transform="translate(220,138)"/>
<path d="M0 0 C0.33 0.99 0.66 1.98 1 3 C-1.375 4.5625 -1.375 4.5625 -4 6 C-4.66 5.67 -5.32 5.34 -6 5 C-4.02 3.35 -2.04 1.7 0 0 Z " fill="#051A18" transform="translate(232,117)"/>
</svg>
